<?xml version="1.0" encoding="UTF-8"?> <svg xmlns="http://www.w3.org/2000/svg" width="1024" height="1024" viewBox="0 0 1024 1024"> <title>Icone Bibliothèque BD</title> <desc>Icône de bibliothèque BD : bulle de dialogue + dos de livres</desc> <defs> <linearGradient id="bggrad" x1="0" y1="0" x2="1" y2="1"> <stop offset="0%" stop-color="#2A2D7C"/> <stop offset="100%" stop-color="#6C4BFF"/> </linearGradient> <filter id="shadow" x="-20%" y="-20%" width="140%" height="140%"> <feDropShadow dx="0" dy="12" stdDeviation="24" flood-opacity="0.25" flood-color="#000000"/> </filter> <filter id="innerSoft" x="-20%" y="-20%" width="140%" height="140%"> <feGaussianBlur in="SourceAlpha" stdDeviation="2" result="blur"/> <feOffset dx="0" dy="2"/> <feComposite in2="SourceAlpha" operator="arithmetic" k2="-1" k3="1" result="innerShadow"/> <feColorMatrix type="matrix" values="0 0 0 0 0 0 0 0 0 0 0 0 0 0 0 0 0 0 0.35 0" in="innerShadow"/> <feComposite in="SourceGraphic" operator="over"/> </filter> </defs> <!-- Fond squircle --> <rect x="64" y="64" width="896" height="896" rx="200" fill="url(#bggrad)"/> <!-- Bulle BD --> <g filter="url(#shadow)"> <g> <rect x="212" y="262" width="600" height="420" rx="60" fill="#FFFFFF"/> <!-- Petite queue de bulle --> <path d="M 360 682 L 300 770 L 430 682 Z" fill="#FFFFFF"/> <!-- Liseré léger --> <rect x="212" y="262" width="600" height="420" rx="60" fill="none" stroke="#FFFFFF" opacity="0.6" stroke-width="4"/> </g> </g> <!-- Dos de livres à l'intérieur de la bulle --> <g filter="url(#innerSoft)"> <!-- Livre cyan --> <rect x="360" y="310" width="72" height="320" rx="24" fill="#00D1FF"/> <rect x="368" y="346" width="56" height="14" rx="7" fill="#FFFFFF" opacity="0.9"/> <rect x="368" y="382" width="40" height="10" rx="5" fill="#FFFFFF" opacity="0.75"/>
<!-- Livre magenta (au centre, un peu plus haut pour rythme visuel) -->
<rect x="460" y="290" width="72" height="360" rx="24" fill="#FF6BCB"/>
<rect x="468" y="330" width="56" height="14" rx="7" fill="#FFFFFF" opacity="0.9"/>
<rect x="468" y="366" width="40" height="10" rx="5" fill="#FFFFFF" opacity="0.75"/>
<!-- Livre jaune -->
<rect x="560" y="320" width="72" height="300" rx="24" fill="#FFD54A"/>
<rect x="568" y="356" width="56" height="14" rx="7" fill="#FFFFFF" opacity="0.9"/>
<rect x="568" y="392" width="40" height="10" rx="5" fill="#FFFFFF" opacity="0.75"/>
</g> </svg>